<svg width="287" height="31" viewBox="0 0 287 31" fill="none" xmlns="http://www.w3.org/2000/svg">
<g clip-path="url(#clip0_133_109)">
<path d="M13.5 6.5L2.5 12.5L13.5 18.5L22.5 13.59V20.5H24.5V12.5M6.5 16.68V20.68L13.5 24.5L20.5 20.68V16.68L13.5 20.5L6.5 16.68Z" fill="black"/>
<path d="M47.8033 4.488C49.0619 4.488 50.1819 4.59467 51.1633 4.808C52.1446 5.02133 53.0299 5.30933 53.8193 5.672L52.8913 8.648C52.1446 8.28533 51.3766 8.01867 50.5873 7.848C49.7979 7.67733 49.0193 7.592 48.2513 7.592C47.3766 7.592 46.5446 7.73067 45.7553 8.008C44.9873 8.28533 44.3153 8.72267 43.7393 9.32C43.1633 9.91733 42.7046 10.6853 42.3633 11.624C42.0219 12.5413 41.8513 13.6507 41.8513 14.952C41.8513 17.2773 42.3633 19.0693 43.3873 20.328C44.4326 21.5653 45.9153 22.184 47.8353 22.184C48.9446 22.184 49.7766 22.0773 50.3313 21.864V17.16H47.0033V13.896H54.5233V24.104C53.6913 24.4667 52.7206 24.7653 51.6113 25C50.5019 25.2347 49.2326 25.352 47.8033 25.352C46.3099 25.352 44.9126 25.128 43.6113 24.68C42.3313 24.232 41.2113 23.5707 40.2513 22.696C39.3126 21.8 38.5659 20.712 38.0113 19.432C37.4779 18.1307 37.2113 16.6373 37.2113 14.952C37.2113 13.2667 37.4779 11.7733 38.0113 10.472C38.5659 9.14933 39.3126 8.05067 40.2513 7.176C41.1899 6.30133 42.2993 5.64 43.5793 5.192C44.8806 4.72267 46.2886 4.488 47.8033 4.488ZM71.3188 18.472H61.1748V18.6C61.1748 19.816 61.6014 20.7227 62.4548 21.32C63.3081 21.9173 64.4068 22.216 65.7508 22.216C66.6041 22.216 67.3508 22.1307 67.9908 21.96C68.6521 21.7893 69.2494 21.5867 69.7828 21.352L70.5508 24.328C69.9748 24.6053 69.2494 24.84 68.3748 25.032C67.5001 25.2453 66.4654 25.352 65.2708 25.352C64.1188 25.352 63.0308 25.2027 62.0068 24.904C61.0041 24.584 60.1188 24.104 59.3508 23.464C58.6041 22.824 58.0068 22.0133 57.5588 21.032C57.1108 20.0507 56.8868 18.8773 56.8868 17.512C56.8868 16.296 57.0681 15.1973 57.4308 14.216C57.7934 13.2133 58.3054 12.36 58.9668 11.656C59.6494 10.952 60.4601 10.408 61.3988 10.024C62.3374 9.61867 63.3828 9.416 64.5348 9.416C66.6041 9.416 68.2468 10.0453 69.4628 11.304C70.7001 12.5627 71.3188 14.3227 71.3188 16.584V18.472ZM66.9668 15.56C66.9668 15.1547 66.9134 14.76 66.8068 14.376C66.7214 13.992 66.5721 13.6613 66.3588 13.384C66.1454 13.0853 65.8788 12.8507 65.5588 12.68C65.2388 12.5093 64.8441 12.424 64.3748 12.424C63.5214 12.424 62.8174 12.712 62.2628 13.288C61.7081 13.864 61.3774 14.6427 61.2708 15.624L66.9668 15.56ZM83.2085 13.384C81.9498 12.7867 80.7338 12.488 79.5605 12.488C78.8778 12.488 78.3445 12.6053 77.9605 12.84C77.5978 13.0747 77.4165 13.3947 77.4165 13.8C77.4165 14.2053 77.5765 14.536 77.8965 14.792C78.2378 15.048 78.9098 15.3253 79.9125 15.624L80.8725 15.912C82.1952 16.296 83.1978 16.8507 83.8805 17.576C84.5632 18.3013 84.9045 19.24 84.9045 20.392C84.9045 21.9067 84.3178 23.112 83.1445 24.008C81.9925 24.904 80.4245 25.352 78.4405 25.352C76.4138 25.352 74.6752 24.9893 73.2245 24.264L74.1845 21.128C74.8032 21.448 75.4538 21.7147 76.1365 21.928C76.8192 22.12 77.5125 22.216 78.2165 22.216C79.0698 22.216 79.6885 22.088 80.0725 21.832C80.4778 21.5547 80.6805 21.2027 80.6805 20.776C80.6805 20.328 80.4885 19.9867 80.1045 19.752C79.7205 19.496 78.9952 19.2187 77.9285 18.92L76.9365 18.632C75.6565 18.2053 74.7178 17.64 74.1205 16.936C73.5232 16.232 73.2245 15.2933 73.2245 14.12C73.2245 12.7333 73.7472 11.6027 74.7925 10.728C75.8378 9.85333 77.2992 9.416 79.1765 9.416C81.0325 9.416 82.6752 9.74667 84.1045 10.408L83.2085 13.384ZM96.6988 12.808H92.6348V19.848C92.6348 20.5733 92.7948 21.0747 93.1148 21.352C93.4561 21.608 93.9041 21.736 94.4588 21.736C94.8854 21.736 95.3228 21.6933 95.7708 21.608C96.2188 21.5227 96.5814 21.4053 96.8588 21.256L97.4988 24.232C97.1361 24.4027 96.5921 24.5733 95.8668 24.744C95.1414 24.9147 94.3734 25 93.5628 25C91.7068 25 90.3841 24.6373 89.5948 23.912C88.8054 23.1653 88.4108 22.056 88.4108 20.584V12.808H86.0428V9.736H88.4108V5.032H92.6348V9.736H96.6988V12.808ZM114.326 17.256C114.326 18.5147 114.123 19.6453 113.718 20.648C113.312 21.6507 112.747 22.504 112.022 23.208C111.318 23.8907 110.486 24.424 109.526 24.808C108.566 25.1707 107.531 25.352 106.422 25.352C105.312 25.352 104.278 25.1813 103.318 24.84C102.379 24.4987 101.558 23.9973 100.854 23.336C100.171 22.6747 99.6268 21.864 99.2215 20.904C98.8375 19.9227 98.6455 18.8133 98.6455 17.576C98.6455 16.2747 98.8482 15.1227 99.2535 14.12C99.6588 13.096 100.214 12.2427 100.918 11.56C101.643 10.856 102.486 10.3227 103.446 9.96C104.406 9.59733 105.44 9.416 106.55 9.416C107.659 9.416 108.683 9.58667 109.622 9.928C110.582 10.2693 111.403 10.7707 112.086 11.432C112.79 12.072 113.334 12.8827 113.718 13.864C114.123 14.8453 114.326 15.976 114.326 17.256ZM109.942 17.416C109.942 16.5413 109.846 15.7947 109.654 15.176C109.462 14.5573 109.206 14.056 108.886 13.672C108.566 13.288 108.192 13.0107 107.766 12.84C107.339 12.648 106.902 12.552 106.454 12.552C106.006 12.552 105.579 12.6373 105.174 12.808C104.768 12.9573 104.406 13.224 104.086 13.608C103.766 13.9707 103.51 14.4613 103.318 15.08C103.126 15.6987 103.03 16.4773 103.03 17.416C103.03 18.248 103.126 18.9733 103.318 19.592C103.51 20.1893 103.766 20.68 104.086 21.064C104.427 21.448 104.8 21.736 105.206 21.928C105.632 22.12 106.07 22.216 106.518 22.216C106.966 22.216 107.392 22.1413 107.798 21.992C108.203 21.8213 108.566 21.544 108.886 21.16C109.206 20.776 109.462 20.2853 109.654 19.688C109.846 19.0693 109.942 18.312 109.942 17.416ZM117.033 25V9.736H120.329L120.809 12.488C121.171 11.6773 121.747 10.9627 122.537 10.344C123.326 9.72533 124.318 9.416 125.513 9.416C126.003 9.416 126.441 9.46933 126.825 9.576C127.209 9.68267 127.529 9.81067 127.785 9.96L127.081 13.32C126.846 13.192 126.547 13.0853 126.185 13C125.822 12.8933 125.395 12.84 124.905 12.84C123.859 12.84 122.985 13.192 122.281 13.896C121.598 14.5787 121.257 15.7093 121.257 17.288V25H117.033ZM141.836 17.128H146.956L146.028 14.44C145.73 13.608 145.452 12.776 145.196 11.944C144.94 11.0907 144.695 10.2373 144.46 9.384H144.396C144.162 10.1947 143.906 11.0267 143.628 11.88C143.351 12.712 143.063 13.5653 142.764 14.44L141.836 17.128ZM142.22 4.84H146.764L154.22 25H149.58L148.012 20.36H140.844L139.276 25H134.7L142.22 4.84ZM164.166 22.216C164.849 22.216 165.446 22.1307 165.958 21.96C166.492 21.768 166.929 21.5867 167.27 21.416L168.07 24.36C167.644 24.5947 167.025 24.8187 166.214 25.032C165.404 25.2453 164.518 25.352 163.558 25.352C162.406 25.352 161.329 25.1813 160.326 24.84C159.324 24.4987 158.449 23.9973 157.702 23.336C156.977 22.6533 156.401 21.8213 155.974 20.84C155.548 19.8587 155.334 18.7173 155.334 17.416C155.334 16.2213 155.537 15.1333 155.942 14.152C156.348 13.1707 156.913 12.328 157.638 11.624C158.364 10.92 159.238 10.376 160.262 9.992C161.286 9.608 162.406 9.416 163.622 9.416C164.284 9.416 164.977 9.48 165.702 9.608C166.449 9.736 167.228 10.0133 168.038 10.44L167.142 13.384C166.694 13.128 166.204 12.9253 165.67 12.776C165.158 12.6053 164.636 12.52 164.102 12.52C162.78 12.52 161.702 12.9253 160.87 13.736C160.06 14.5467 159.654 15.7307 159.654 17.288C159.654 18.2053 159.782 18.984 160.038 19.624C160.316 20.2427 160.668 20.744 161.094 21.128C161.521 21.512 162.001 21.7893 162.534 21.96C163.068 22.1307 163.612 22.216 164.166 22.216ZM170.54 11.08C171.457 10.5467 172.428 10.1413 173.452 9.864C174.476 9.56533 175.564 9.416 176.716 9.416C177.633 9.416 178.465 9.52267 179.212 9.736C179.98 9.94933 180.63 10.2907 181.164 10.76C181.718 11.208 182.134 11.7947 182.412 12.52C182.71 13.224 182.86 14.0773 182.86 15.08V25H179.564L179.18 23.432H179.052C178.561 24.0293 177.932 24.4987 177.164 24.84C176.417 25.1813 175.542 25.352 174.54 25.352C173.708 25.352 172.972 25.2347 172.332 25C171.692 24.744 171.148 24.4133 170.7 24.008C170.252 23.5813 169.91 23.08 169.676 22.504C169.462 21.928 169.356 21.3093 169.356 20.648C169.356 19.7733 169.537 19.0267 169.9 18.408C170.284 17.768 170.806 17.2453 171.468 16.84C172.129 16.4347 172.897 16.136 173.772 15.944C174.668 15.752 175.628 15.656 176.652 15.656H178.572V14.728C178.572 14.024 178.348 13.512 177.9 13.192C177.473 12.8507 176.865 12.68 176.076 12.68C175.457 12.68 174.817 12.776 174.156 12.968C173.516 13.16 172.801 13.4693 172.012 13.896L170.54 11.08ZM178.604 18.312L177.228 18.344C175.926 18.3867 175.02 18.6107 174.508 19.016C173.996 19.4 173.74 19.8693 173.74 20.424C173.74 21.1493 173.953 21.6507 174.38 21.928C174.828 22.184 175.329 22.312 175.884 22.312C176.438 22.312 176.961 22.152 177.452 21.832C177.964 21.512 178.348 21.1387 178.604 20.712V18.312ZM196.007 2.152H200.263V25H197.223L196.775 23.336H196.615C196.231 23.8693 195.677 24.3387 194.951 24.744C194.247 25.1493 193.319 25.352 192.167 25.352C191.207 25.352 190.311 25.1707 189.479 24.808C188.647 24.4453 187.922 23.9227 187.303 23.24C186.685 22.5573 186.194 21.7253 185.831 20.744C185.49 19.7627 185.319 18.6427 185.319 17.384C185.319 16.168 185.479 15.0693 185.799 14.088C186.119 13.1067 186.578 12.2747 187.175 11.592C187.773 10.888 188.509 10.3547 189.383 9.992C190.258 9.608 191.261 9.416 192.391 9.416C193.117 9.416 193.799 9.52267 194.439 9.736C195.101 9.94933 195.623 10.2267 196.007 10.568V2.152ZM196.007 13.736C195.73 13.3947 195.367 13.1067 194.919 12.872C194.471 12.6373 193.981 12.52 193.447 12.52C192.935 12.52 192.445 12.6053 191.975 12.776C191.527 12.9467 191.122 13.224 190.759 13.608C190.418 13.9707 190.141 14.4613 189.927 15.08C189.714 15.6773 189.607 16.4133 189.607 17.288C189.607 18.1413 189.703 18.8773 189.895 19.496C190.087 20.1147 190.343 20.6267 190.663 21.032C190.983 21.4373 191.357 21.736 191.783 21.928C192.231 22.12 192.701 22.216 193.191 22.216C193.874 22.216 194.45 22.056 194.919 21.736C195.41 21.3947 195.773 21 196.007 20.552V13.736ZM217.463 18.248H207.319V18.376C207.319 19.6773 207.745 20.648 208.599 21.288C209.452 21.9067 210.551 22.216 211.895 22.216C212.748 22.216 213.495 22.1307 214.135 21.96C214.796 21.7893 215.393 21.5867 215.927 21.352L216.695 24.328C216.119 24.6053 215.393 24.84 214.519 25.032C213.644 25.2453 212.609 25.352 211.415 25.352C210.263 25.352 209.175 25.2027 208.151 24.904C207.148 24.584 206.263 24.104 205.495 23.464C204.748 22.824 204.151 22.0133 203.703 21.032C203.255 20.0507 203.031 18.8773 203.031 17.512C203.031 16.296 203.212 15.1973 203.575 14.216C203.937 13.2133 204.449 12.36 205.111 11.656C205.793 10.952 206.604 10.408 207.543 10.024C208.481 9.61867 209.527 9.416 210.679 9.416C212.748 9.416 214.391 10.0453 215.607 11.304C216.844 12.5627 217.463 14.3227 217.463 16.584V18.248ZM213.111 15.56C213.111 15.1547 213.057 14.76 212.951 14.376C212.865 13.992 212.716 13.6613 212.503 13.384C212.289 13.0853 212.023 12.8507 211.703 12.68C211.383 12.5093 210.988 12.424 210.519 12.424C209.665 12.424 208.961 12.712 208.407 13.288C207.852 13.864 207.521 14.6427 207.415 15.624L213.111 15.56ZM215.767 7.464H212.599L210.615 5L208.599 7.464H205.335L209.367 2.92H211.831L215.767 7.464ZM224.392 25H220.136V9.736H223.464L223.976 11.688C224.659 10.984 225.406 10.4293 226.216 10.024C227.027 9.61867 227.944 9.416 228.968 9.416C231.144 9.416 232.627 10.2053 233.416 11.784C234.099 11.0373 234.878 10.4613 235.752 10.056C236.627 9.62933 237.566 9.416 238.568 9.416C240.19 9.416 241.427 9.85333 242.28 10.728C243.155 11.6027 243.592 12.872 243.592 14.536V25H239.336V15.016C239.336 14.2907 239.155 13.7253 238.792 13.32C238.451 12.8933 237.939 12.68 237.256 12.68C236.68 12.68 236.094 12.8187 235.496 13.096C234.92 13.3733 234.419 13.768 233.992 14.28V25H229.736V15.016C229.736 14.2907 229.555 13.7253 229.192 13.32C228.851 12.8933 228.339 12.68 227.656 12.68C227.08 12.68 226.494 12.84 225.896 13.16C225.32 13.4587 224.819 13.8747 224.392 14.408V25ZM247.481 25V9.736H251.737V25H247.481ZM249.625 6.472C248.899 6.472 248.334 6.26933 247.929 5.864C247.523 5.43733 247.321 4.91467 247.321 4.296C247.321 3.67733 247.523 3.16533 247.929 2.76C248.334 2.33333 248.899 2.12 249.625 2.12C250.329 2.12 250.883 2.33333 251.289 2.76C251.715 3.16533 251.929 3.67733 251.929 4.296C251.929 4.91467 251.726 5.43733 251.321 5.864C250.915 6.26933 250.35 6.472 249.625 6.472ZM263.653 22.216C264.335 22.216 264.933 22.1307 265.445 21.96C265.978 21.768 266.415 21.5867 266.757 21.416L267.557 24.36C267.13 24.5947 266.511 24.8187 265.701 25.032C264.89 25.2453 264.005 25.352 263.045 25.352C261.893 25.352 260.815 25.1813 259.813 24.84C258.81 24.4987 257.935 23.9973 257.189 23.336C256.463 22.6533 255.887 21.8213 255.461 20.84C255.034 19.8587 254.821 18.7173 254.821 17.416C254.821 16.2213 255.023 15.1333 255.429 14.152C255.834 13.1707 256.399 12.328 257.125 11.624C257.85 10.92 258.725 10.376 259.749 9.992C260.773 9.608 261.893 9.416 263.109 9.416C263.77 9.416 264.463 9.48 265.189 9.608C265.935 9.736 266.714 10.0133 267.525 10.44L266.629 13.384C266.181 13.128 265.69 12.9253 265.157 12.776C264.645 12.6053 264.122 12.52 263.589 12.52C262.266 12.52 261.189 12.9253 260.357 13.736C259.546 14.5467 259.141 15.7307 259.141 17.288C259.141 18.2053 259.269 18.984 259.525 19.624C259.802 20.2427 260.154 20.744 260.581 21.128C261.007 21.512 261.487 21.7893 262.021 21.96C262.554 22.1307 263.098 22.216 263.653 22.216ZM283.962 17.256C283.962 18.5147 283.759 19.6453 283.354 20.648C282.948 21.6507 282.383 22.504 281.658 23.208C280.954 23.8907 280.122 24.424 279.162 24.808C278.202 25.1707 277.167 25.352 276.058 25.352C274.948 25.352 273.914 25.1813 272.954 24.84C272.015 24.4987 271.194 23.9973 270.49 23.336C269.807 22.6747 269.263 21.864 268.858 20.904C268.474 19.9227 268.282 18.8133 268.282 17.576C268.282 16.2747 268.484 15.1227 268.89 14.12C269.295 13.096 269.85 12.2427 270.554 11.56C271.279 10.856 272.122 10.3227 273.082 9.96C274.042 9.59733 275.076 9.416 276.186 9.416C277.295 9.416 278.319 9.58667 279.258 9.928C280.218 10.2693 281.039 10.7707 281.722 11.432C282.426 12.072 282.97 12.8827 283.354 13.864C283.759 14.8453 283.962 15.976 283.962 17.256ZM279.578 17.416C279.578 16.5413 279.482 15.7947 279.29 15.176C279.098 14.5573 278.842 14.056 278.522 13.672C278.202 13.288 277.828 13.0107 277.402 12.84C276.975 12.648 276.538 12.552 276.09 12.552C275.642 12.552 275.215 12.6373 274.81 12.808C274.404 12.9573 274.042 13.224 273.722 13.608C273.402 13.9707 273.146 14.4613 272.954 15.08C272.762 15.6987 272.666 16.4773 272.666 17.416C272.666 18.248 272.762 18.9733 272.954 19.592C273.146 20.1893 273.402 20.68 273.722 21.064C274.063 21.448 274.436 21.736 274.842 21.928C275.268 22.12 275.706 22.216 276.154 22.216C276.602 22.216 277.028 22.1413 277.434 21.992C277.839 21.8213 278.202 21.544 278.522 21.16C278.842 20.776 279.098 20.2853 279.29 19.688C279.482 19.0693 279.578 18.312 279.578 17.416Z" fill="black"/>
</g>
<defs>
<clipPath id="clip0_133_109">
<rect width="287" height="31" fill="white"/>
</clipPath>
</defs>
</svg>
